# Blender v2.67 (sub 0) OBJ File: 'fence.blend'
# www.blender.org
o Cube.002_Cube.003
v -1.000000 -0.503296 -0.100000
v -1.000000 -0.203296 -0.100000
v 1.000000 -0.203296 -0.100000
v 1.000000 -0.503296 -0.100000
v -1.000000 -0.503296 0.100000
v -1.000000 -0.203296 0.100000
v 1.000000 -0.203296 0.100000
v 1.000000 -0.503296 0.100000
vt 0.047706 0.804139
vt 0.960122 0.804139
vt 0.047706 0.195861
vt 0.035491 0.546914
vt 0.973768 0.546914
vt 0.973768 0.453086
vt 0.035491 0.453086
vt 0.021731 0.411535
vt 0.021731 0.555980
vt 0.984698 0.411535
vt 0.984698 0.555980
vt 0.960122 0.195861
vn -1.000000 0.000000 0.000000
vn 0.000000 1.000000 -0.000000
vn 1.000000 0.000000 0.000000
vn 0.000000 -1.000000 0.000000
vn -0.000000 -0.000000 -1.000000
vn -0.000000 0.000000 1.000000
s off
f 5/1/1 6/2/1 1/3/1
f 6/4/2 7/5/2 3/6/2
f 7/2/3 8/1/3 4/3/3
f 8/5/4 5/4/4 1/7/4
f 1/8/5 2/9/5 4/10/5
f 8/10/6 7/11/6 6/9/6
f 6/2/1 2/12/1 1/3/1
f 2/7/2 6/4/2 3/6/2
f 3/12/3 7/2/3 4/3/3
f 4/6/4 8/5/4 1/7/4
f 2/9/5 3/11/5 4/10/5
f 5/8/6 8/10/6 6/9/6
o Cube.001_Cube.002
v -1.000000 0.520805 -0.100000
v -1.000000 0.820805 -0.100000
v 1.000000 0.820805 -0.100000
v 1.000000 0.520805 -0.100000
v -1.000000 0.520805 0.100000
v -1.000000 0.820805 0.100000
v 1.000000 0.820805 0.100000
v 1.000000 0.520805 0.100000
vt 0.574941 0.605362
vt 0.719366 0.605362
vt 0.574941 0.509079
vt 0.031380 0.547529
vt 0.981952 0.547529
vt 0.981952 0.452471
vt 0.031380 0.452471
vt 0.011699 0.602897
vt 0.011699 0.750351
vt 0.994729 0.602897
vt 0.994729 0.750351
vt 0.719366 0.509079
s off
f 13/13/1 14/14/1 9/15/1
f 14/16/2 15/17/2 11/18/2
f 15/14/3 16/13/3 12/15/3
f 16/17/4 13/16/4 9/19/4
f 9/20/5 10/21/5 12/22/5
f 16/22/6 15/23/6 14/21/6
f 14/14/1 10/24/1 9/15/1
f 10/19/2 14/16/2 11/18/2
f 11/24/3 15/14/3 12/15/3
f 12/18/4 16/17/4 9/19/4
f 10/21/5 11/23/5 12/22/5
f 13/20/6 16/22/6 14/21/6
o Cube_Cube.001
v -0.201957 -1.000000 -0.200000
v -0.201957 1.000000 -0.200000
v 0.206551 1.000000 -0.200000
v 0.206551 -1.000000 -0.200000
v -0.201957 -1.000000 0.200000
v -0.201957 1.000000 0.200000
v 0.206551 1.000000 0.200000
v 0.206551 -1.000000 0.200000
vt 0.414982 0.978784
vt 0.415035 0.021205
vt 0.606497 0.978795
vt 0.438020 0.435740
vt 0.569274 0.435740
vt 0.569274 0.564260
vt 0.438020 0.564260
vt 0.404804 0.020592
vt 0.404804 0.988441
vt 0.602490 0.020592
vt 0.602490 0.988441
vt 0.606550 0.021216
s off
f 21/25/1 22/26/1 17/27/1
f 22/28/2 23/29/2 19/30/2
f 23/26/3 24/25/3 20/27/3
f 24/29/4 21/28/4 17/31/4
f 17/32/5 18/33/5 20/34/5
f 24/34/6 23/35/6 22/33/6
f 22/26/1 18/36/1 17/27/1
f 18/31/2 22/28/2 19/30/2
f 19/36/3 23/26/3 20/27/3
f 20/30/4 24/29/4 17/31/4
f 18/33/5 19/35/5 20/34/5
f 21/32/6 24/34/6 22/33/6
