# Blender v2.67 (sub 0) OBJ File: 'skull.blend'
# www.blender.org
v 0.489551 -0.096845 0.489551
v 0.342686 0.067429 0.489551
v 0.342686 -0.096845 0.489551
v 0.489551 0.490616 -0.489551
v -0.489551 0.490616 -0.489551
v -0.489551 0.490616 0.489551
v 0.489551 0.490616 0.489551
v 0.489551 -0.488485 -0.489551
v -0.489551 -0.488485 -0.489551
v 0.489551 -0.488486 0.195820
v 0.342686 -0.488486 0.195820
v -0.187899 -0.078937 0.489551
v -0.342686 -0.096845 0.489551
v -0.342686 -0.204037 0.489551
v 0.187899 -0.078937 0.489551
v 0.342686 -0.204037 0.489551
v -0.342686 -0.301947 0.489551
v -0.342686 -0.488486 0.489551
v 0.342686 -0.488486 0.489551
v 0.342686 -0.301947 0.489551
v 0.155521 0.030722 0.489551
v 0.123142 0.067429 0.489551
v 0.342686 0.326342 0.489551
v 0.489551 -0.096845 0.195820
v -0.123142 0.067429 0.489551
v -0.155521 0.030722 0.489551
v 0.360535 -0.096845 0.195820
v 0.342686 -0.096845 0.195820
v 0.342686 -0.301947 0.195820
v 0.342686 -0.204037 0.195820
v 0.155521 0.030722 0.199678
v 0.187899 -0.078937 0.199678
v 0.123142 0.326342 0.489551
v 0.123142 0.326342 0.195820
v 0.342686 0.326342 0.195820
v 0.123142 0.067429 0.195820
v 0.342686 0.067429 0.195820
v -0.489551 -0.096845 0.489551
v -0.342686 0.067429 0.489551
v -0.342686 0.326342 0.489551
v -0.123142 0.326342 0.489551
v -0.342686 -0.488486 0.195820
v -0.489551 -0.488486 0.195820
v -0.360535 -0.096845 0.195820
v -0.342686 -0.096845 0.195820
v -0.489551 -0.096845 0.195820
v -0.342686 -0.301947 0.195820
v -0.342686 -0.204037 0.195820
v -0.187899 -0.078937 0.199678
v -0.155521 0.030722 0.199678
v -0.342686 0.326342 0.195820
v -0.123142 0.326342 0.195820
v -0.123142 0.067429 0.195820
v -0.342686 0.067429 0.195820
vt 0.640400 0.193900
vt 0.686400 0.142500
vt 0.686400 0.193900
vt 0.631800 0.631800
vt 0.325200 0.631800
vt 0.325200 0.325200
vt 0.631800 0.316600
vt 0.325200 0.316600
vt 0.631800 0.010000
vt 0.316600 0.640400
vt 0.316600 0.855000
vt 0.270600 0.855000
vt 0.852600 0.188300
vt 0.901000 0.193900
vt 0.734900 0.188300
vt 0.901000 0.227500
vt 0.686400 0.227500
vt 0.539800 0.758400
vt 0.539800 0.816800
vt 0.325200 0.816800
vt 0.745000 0.154000
vt 0.755200 0.142500
vt 0.640400 0.010000
vt 0.010000 0.132600
vt 0.102000 0.132600
vt 0.010000 0.316600
vt 0.832300 0.142500
vt 0.884900 0.896100
vt 0.976900 0.896100
vt 0.884900 0.936500
vt 0.976900 0.942100
vt 0.884900 0.942100
vt 0.976900 0.811700
vt 0.976900 0.870100
vt 0.884900 0.870100
vt 0.535100 0.949700
vt 0.535100 0.983300
vt 0.443100 0.983300
vt 0.316600 0.010000
vt 0.316600 0.316600
vt 0.686400 0.325200
vt 0.686400 0.358800
vt 0.640400 0.325200
vt 0.102000 0.010000
vt 0.640400 0.447900
vt 0.686400 0.389400
vt 0.686400 0.447900
vt 0.640400 0.287800
vt 0.640400 0.253400
vt 0.731200 0.287800
vt 0.078700 0.102000
vt 0.010000 0.102000
vt 0.078700 0.010000
vt 0.417200 0.842700
vt 0.417200 0.923800
vt 0.325200 0.923800
vt 0.784000 0.672800
vt 0.784000 0.591700
vt 0.876000 0.672800
vt 0.758400 0.777200
vt 0.758400 0.708400
vt 0.850300 0.708400
vt 0.640400 0.884200
vt 0.640400 0.815400
vt 0.721500 0.815400
vt 0.947000 0.193900
vt 0.901000 0.142500
vt 0.947000 0.010000
vt 0.901000 0.061400
vt 0.755200 0.061400
vt 0.686400 0.061400
vt 0.010000 0.640400
vt 0.056000 0.855000
vt 0.010000 0.855000
vt 0.842400 0.154000
vt 0.798300 0.407500
vt 0.798300 0.401900
vt 0.798300 0.447900
vt 0.890300 0.401900
vt 0.890300 0.447900
vt 0.758400 0.915100
vt 0.850300 0.915100
vt 0.758400 0.973500
vt 0.153600 0.955700
vt 0.245600 0.955700
vt 0.153600 0.989200
vt 0.855000 0.565800
vt 0.640400 0.565800
vt 0.640400 0.473800
vt 0.325200 0.732400
vt 0.325200 0.640400
vt 0.539800 0.732400
vt 0.316600 0.447900
vt 0.316600 0.631800
vt 0.010000 0.631800
vt 0.010000 0.325200
vt 0.224600 0.447900
vt 0.901000 0.325200
vt 0.947000 0.325200
vt 0.901000 0.358800
vt 0.224600 0.325200
vt 0.947000 0.447900
vt 0.901000 0.447900
vt 0.901000 0.389400
vt 0.640400 0.591700
vt 0.758100 0.591700
vt 0.758100 0.682500
vt 0.416000 0.984100
vt 0.325200 0.984100
vt 0.325200 0.949700
vt 0.978400 0.473800
vt 0.978400 0.564600
vt 0.881000 0.564600
vt 0.976900 0.777200
vt 0.884900 0.777200
vt 0.976900 0.708400
vt 0.443100 0.842700
vt 0.535100 0.842700
vt 0.443100 0.923800
vt 0.732400 0.789500
vt 0.640400 0.789500
vt 0.640400 0.708400
vt 0.758400 0.811700
vt 0.850300 0.811700
vt 0.850300 0.880500
vt 0.902000 0.591700
vt 0.983000 0.591700
vt 0.983000 0.660400
vt 0.270600 0.947000
vt 0.020100 0.955700
vt 0.117500 0.955700
vt 0.010000 0.990000
vt 0.832300 0.061400
vt 0.631800 0.325200
vt 0.325200 0.010000
vt 0.325200 0.758400
vt 0.884900 0.811700
vt 0.443100 0.949700
vt 0.731200 0.253400
vt 0.010000 0.010000
vt 0.325200 0.842700
vt 0.876000 0.591700
vt 0.850300 0.777200
vt 0.721500 0.884200
vt 0.850300 0.973500
vt 0.245600 0.989200
vt 0.855000 0.473800
vt 0.539800 0.640400
vt 0.640400 0.682500
vt 0.416000 0.949700
vt 0.881000 0.473800
vt 0.884900 0.708400
vt 0.535100 0.923800
vt 0.732400 0.708400
vt 0.758400 0.880500
vt 0.902000 0.660400
vt 0.056000 0.947000
vt 0.127700 0.990000
vn 0.577349 -0.577349 0.577349
vn -0.301492 0.301492 0.904508
vn 0.301492 -0.301492 0.904508
vn 0.577349 0.577349 -0.577349
vn -0.577349 0.577349 -0.577349
vn -0.577349 0.577349 0.577349
vn -0.577349 -0.577349 -0.577349
vn 0.577349 -0.577349 -0.577349
vn 0.301492 -0.904508 0.301492
vn 0.282022 0.210791 0.935942
vn -0.301492 -0.301492 0.904508
vn -0.282022 0.210791 0.935942
vn -0.577349 -0.577349 0.577349
vn -0.295907 -0.395917 0.869259
vn 0.301492 0.301492 0.904508
vn 0.577349 0.577349 0.577349
vn 0.904508 -0.301492 0.301492
vn 0.000000 -1.000000 0.000000
vn -0.661580 0.494461 0.563707
vn -0.301492 -0.904508 0.301492
vn 0.295907 -0.395917 0.869259
vn -0.855220 -0.229713 0.464492
vn -0.904508 -0.301492 0.301492
vn 0.661580 0.494461 0.563707
vn 0.481613 -0.644368 0.593951
vn -0.481613 -0.644368 0.593951
s 1
f 1/1/1 2/2/2 3/3/3
f 4/4/4 5/5/5 6/6/6
f 5/7/5 4/8/4 9/9/7
f 8/10/8 10/11/1 11/12/9
f 12/13/10 13/14/11 15/15/12
f 15/15/12 14/16/13 16/17/1
f 17/18/6 18/19/13 19/20/1
f 21/21/14 15/15/12 3/3/3
f 22/22/15 3/3/3 2/2/2
f 1/1/1 7/23/16 2/2/2
f 1/24/1 24/25/17 7/26/16
f 21/21/14 22/22/15 25/27/2
f 24/28/17 1/29/1 27/30/18
f 3/31/3 28/32/1 27/30/18
f 20/33/16 19/34/1 11/35/9
f 3/36/3 16/37/1 30/38/3
f 8/39/8 4/40/4 24/25/17
f 28/41/1 30/42/3 24/43/17
f 8/39/8 24/25/17 10/44/1
f 10/45/1 29/46/15 11/47/9
f 10/45/1 24/43/17 29/46/15
f 15/48/12 21/49/14 32/50/19
f 23/51/11 33/52/3 35/53/13
f 33/54/3 22/55/15 36/56/16
f 2/57/2 23/58/11 37/59/6
f 22/60/15 2/61/2 37/62/6
f 36/63/16 37/64/6 35/65/13
f 38/66/13 13/14/11 39/67/15
f 6/68/6 40/69/3 33/70/3
f 6/68/6 33/70/3 23/71/11
f 9/72/7 42/73/20 43/74/13
f 25/27/2 39/67/15 13/14/11
f 13/14/11 12/13/10 26/75/21
f 38/66/13 39/67/15 40/69/3
f 44/76/22 45/77/13 46/78/23
f 46/78/23 13/79/11 38/80/13
f 17/81/6 47/82/2 18/83/13
f 13/84/11 45/85/13 14/86/13
f 17/87/6 20/88/16 29/89/15
f 30/90/3 16/91/1 48/92/11
f 38/93/13 6/94/6 5/95/5
f 9/96/7 46/97/23 5/95/5
f 45/98/13 46/99/23 48/100/11
f 43/101/13 46/97/23 9/96/7
f 43/102/13 42/103/20 47/104/2
f 43/102/13 47/104/2 48/100/11
f 47/104/2 29/46/15 30/42/3
f 32/105/19 49/106/24 12/107/10
f 12/108/10 49/109/24 50/110/25
f 26/111/21 50/112/25 31/113/26
f 40/114/3 51/115/1 41/116/13
f 41/117/13 52/118/13 25/119/2
f 39/120/15 54/121/16 51/122/1
f 25/123/2 53/124/6 54/125/16
f 53/126/6 52/127/13 51/128/1
f 42/73/20 9/72/7 11/12/9
f 11/12/9 19/129/1 42/73/20
f 31/130/26 50/131/25 32/132/19
f 33/70/3 41/133/13 25/27/2
f 7/134/16 4/4/4 6/6/6
f 4/8/4 8/135/8 9/9/7
f 13/14/11 14/16/13 15/15/12
f 3/3/3 15/15/12 16/17/1
f 20/136/16 17/18/6 19/20/1
f 22/22/15 21/21/14 3/3/3
f 7/23/16 23/71/11 2/2/2
f 24/25/17 4/40/4 7/26/16
f 26/75/21 21/21/14 25/27/2
f 1/29/1 3/31/3 27/30/18
f 29/137/15 20/33/16 11/35/9
f 28/138/1 3/36/3 30/38/3
f 24/43/17 30/42/3 29/46/15
f 21/49/14 31/139/26 32/50/19
f 33/52/3 34/140/1 35/53/13
f 34/141/1 33/54/3 36/56/16
f 23/58/11 35/142/13 37/59/6
f 36/143/16 22/60/15 37/62/6
f 34/144/1 36/63/16 35/65/13
f 40/69/3 41/133/13 33/70/3
f 7/23/16 6/68/6 23/71/11
f 26/75/21 25/27/2 13/14/11
f 6/68/6 38/66/13 40/69/3
f 45/77/13 13/79/11 46/78/23
f 47/82/2 42/145/20 18/83/13
f 45/85/13 48/146/11 14/86/13
f 47/147/2 17/87/6 29/89/15
f 16/91/1 14/148/13 48/92/11
f 46/97/23 38/93/13 5/95/5
f 46/99/23 43/102/13 48/100/11
f 48/100/11 47/104/2 30/42/3
f 15/149/12 32/105/19 12/107/10
f 26/150/21 12/108/10 50/110/25
f 21/151/14 26/111/21 31/113/26
f 51/115/1 52/152/13 41/116/13
f 52/118/13 53/153/6 25/119/2
f 40/154/3 39/120/15 51/122/1
f 39/155/15 25/123/2 54/125/16
f 54/156/16 53/126/6 51/128/1
f 9/72/7 8/10/8 11/12/9
f 19/129/1 18/157/13 42/73/20
f 50/131/25 49/158/24 32/132/19
f 22/22/15 33/70/3 25/27/2
